<?xml version="1.0" standalone="no"?>
<!DOCTYPE svg PUBLIC "-//W3C//DTD SVG 20010904//EN"
 "http://www.w3.org/TR/2001/REC-SVG-20010904/DTD/svg10.dtd">
<svg version="1.0" xmlns="http://www.w3.org/2000/svg"
 width="165.000000pt" height="86.000000pt" viewBox="0 0 165.000000 86.000000"
 preserveAspectRatio="xMidYMid meet">

<g transform="translate(0.000000,86.000000) scale(0.100000,-0.100000)"
fill="#000000" stroke="none">
<path d="M446 845 c-131 -21 -230 -51 -322 -96 -95 -46 -137 -82 -53 -45 30
13 92 36 139 52 83 28 90 29 295 29 198 -1 216 -2 314 -28 211 -57 407 -149
586 -277 98 -69 101 -71 152 -67 52 4 93 27 93 52 0 15 -286 180 -450 259
-204 97 -297 120 -545 130 -81 4 -149 1 -209 -9z"/>
<path d="M220 553 c0 -33 47 -118 80 -146 72 -61 121 -77 279 -91 l124 -11 21
-60 c31 -86 66 -108 168 -103 91 4 125 23 148 86 9 22 18 43 21 47 4 3 24 -2
45 -12 94 -43 186 -118 251 -206 19 -26 37 -46 40 -44 2 3 -3 40 -12 83 -23
112 -74 211 -144 277 -134 128 -297 166 -613 145 -219 -15 -293 -6 -400 50 -5
2 -8 -5 -8 -15z"/>
</g>
</svg>
